<svg xmlns="http://www.w3.org/2000/svg" xmlns:xlink="http://www.w3.org/1999/xlink" width="500" zoomAndPan="magnify" viewBox="0 0 375 374.999991" height="500" preserveAspectRatio="xMidYMid meet" version="1.0"><defs><clipPath id="fa640432f8"><path d="M 89.042969 87.160156 L 286 87.160156 L 286 197 L 89.042969 197 Z M 89.042969 87.160156 " clip-rule="nonzero"/></clipPath><clipPath id="b95aa81fde"><path d="M 201 125.476562 L 218 125.476562 L 218 147 L 201 147 Z M 201 125.476562 " clip-rule="nonzero"/></clipPath><clipPath id="591d24ef3a"><path d="M 131.371094 128 L 234 128 L 234 233 L 131.371094 233 Z M 131.371094 128 " clip-rule="nonzero"/></clipPath></defs><g clip-path="url(#fa640432f8)"><path fill="#7a0000" d="M 110.246094 168.222656 C 107.578125 159.335938 105.527344 150.066406 104.140625 140.636719 C 110.660156 139.671875 118.1875 137.601562 126.570312 134.472656 C 135.695312 131.0625 145.980469 126.359375 157.136719 120.492188 C 170.429688 113.5 181.953125 106.414062 187.46875 102.925781 C 187.476562 102.929688 187.488281 102.9375 187.496094 102.945312 C 187.507812 102.9375 187.515625 102.929688 187.527344 102.925781 C 193.042969 106.414062 204.5625 113.5 217.859375 120.492188 C 229.015625 126.359375 239.296875 131.0625 248.421875 134.472656 C 256.804688 137.601562 264.335938 139.671875 270.851562 140.636719 C 269.464844 150.066406 267.417969 159.335938 264.746094 168.222656 C 261.871094 177.800781 258.207031 187.179688 253.847656 196.121094 C 278.859375 169.015625 285.953125 128.445312 285.953125 128.445312 L 278.507812 128.355469 C 266.703125 128.21875 248.011719 121.597656 224.453125 109.214844 C 206.210938 99.628906 191.53125 89.933594 191.386719 89.835938 L 187.527344 87.277344 L 187.496094 87.296875 L 187.46875 87.277344 L 183.609375 89.835938 C 183.460938 89.933594 168.785156 99.628906 150.542969 109.214844 C 126.980469 121.597656 108.289062 128.21875 96.484375 128.355469 L 89.042969 128.445312 C 89.042969 128.445312 96.136719 169.015625 121.148438 196.121094 C 116.789062 187.179688 113.125 177.800781 110.246094 168.222656 " fill-opacity="1" fill-rule="nonzero"/></g><path fill="#7a0000" d="M 187.527344 271.761719 C 187.515625 271.753906 187.507812 271.75 187.496094 271.742188 C 187.488281 271.75 187.476562 271.753906 187.46875 271.761719 C 144.800781 244.421875 108.386719 189.542969 101.417969 179.035156 C 103.796875 185.832031 106.507812 192.492188 109.511719 198.949219 C 117.792969 216.730469 128.46875 233.300781 141.234375 248.203125 C 152.597656 261.472656 163.566406 270.945312 170.769531 276.554688 C 178.695312 282.730469 183.9375 285.738281 184.15625 285.863281 L 187.46875 287.753906 L 187.496094 287.738281 L 187.527344 287.753906 L 190.835938 285.863281 C 191.058594 285.738281 196.300781 282.730469 204.222656 276.554688 C 211.425781 270.945312 222.394531 261.472656 233.761719 248.203125 C 246.527344 233.300781 257.199219 216.730469 265.480469 198.949219 C 268.488281 192.492188 271.195312 185.832031 273.578125 179.035156 C 266.605469 189.542969 230.191406 244.421875 187.527344 271.761719 " fill-opacity="1" fill-rule="nonzero"/><path fill="#7a0000" d="M 226.847656 163.167969 C 227.519531 162.703125 227.835938 162.019531 228.589844 161.558594 C 227.40625 160.089844 225.785156 159.261719 224.066406 158.574219 C 220.878906 157.308594 218.367188 156.960938 215.203125 157.117188 C 214.855469 157.136719 213.636719 157.308594 213.625 157.300781 C 214.09375 157.511719 214.566406 157.8125 215.054688 157.960938 C 215.3125 157.800781 215.59375 157.605469 215.882812 157.519531 C 216.316406 157.386719 217.105469 157.476562 217.542969 157.578125 L 218.058594 157.75 L 218.25 159.203125 C 218.480469 159.03125 219.285156 158.175781 219.457031 158.125 C 219.632812 158.070312 220.820312 158.328125 221.140625 158.394531 L 221.230469 160.003906 C 221.734375 159.667969 222.332031 158.820312 222.988281 158.964844 C 223.480469 159.070312 223.941406 159.289062 224.378906 159.539062 L 224.257812 161.367188 C 225.59375 160.492188 225.503906 160.136719 226.128906 160.273438 C 226.433594 160.359375 226.785156 160.566406 227.035156 160.863281 C 227.035156 160.957031 227.027344 161.027344 227.011719 161.117188 C 226.976562 161.324219 227.066406 161.585938 227.046875 161.816406 C 227.011719 162.265625 226.90625 162.71875 226.847656 163.167969 Z M 226.847656 163.167969 " fill-opacity="1" fill-rule="nonzero"/><path fill="#7a0000" d="M 197.421875 137.117188 C 199.464844 138.121094 201.574219 139.148438 203.742188 139.863281 C 199.339844 135.800781 200.976562 137.207031 196.59375 133.671875 C 194.390625 131.757812 192.730469 129.378906 191.535156 126.726562 C 191.882812 129.492188 192.785156 132.234375 194.234375 134.621094 C 195.132812 136.097656 195.136719 135.992188 197.421875 137.117188 Z M 197.421875 137.117188 " fill-opacity="1" fill-rule="nonzero"/><g clip-path="url(#b95aa81fde)"><path fill="#7a0000" d="M 205.859375 140.324219 C 206.886719 141.449219 208.894531 140.890625 215.320312 145.167969 C 216.003906 145.621094 216.707031 146.078125 217.335938 146.605469 C 217.328125 143.113281 216.363281 139.664062 214.664062 136.617188 C 213.921875 135.347656 212.472656 133.265625 212.074219 132.910156 C 213.027344 135.476562 213.730469 138.121094 214.113281 140.832031 C 214.230469 141.664062 214.273438 142.511719 214.335938 143.351562 C 210.59375 138.03125 205.855469 135.402344 202.722656 127.847656 C 202.402344 127.070312 202.171875 126.269531 201.882812 125.484375 C 201.566406 132.609375 203.996094 138.289062 205.859375 140.324219 Z M 205.859375 140.324219 " fill-opacity="1" fill-rule="nonzero"/></g><g clip-path="url(#591d24ef3a)"><path fill="#7a0000" d="M 233.695312 154.972656 C 233.167969 155.96875 232.429688 156.742188 231.324219 157.085938 C 230.050781 157.480469 228.921875 157.007812 227.789062 156.46875 C 225.996094 155.582031 224.03125 154.667969 223.101562 153.714844 C 221.800781 152.386719 221.988281 150.214844 218.597656 147.875 C 217.621094 147.199219 216.558594 146.683594 215.535156 146.09375 C 213.328125 144.820312 211.203125 143.539062 208.820312 142.601562 C 205.53125 141.304688 202.140625 140.335938 198.921875 138.855469 C 196.664062 137.820312 194.554688 136.484375 192.390625 135.265625 C 191.820312 134.945312 191.238281 134.496094 190.644531 134.234375 C 192.0625 135.699219 193.703125 136.941406 195.207031 138.316406 C 202.414062 145.046875 201.023438 144.160156 205.691406 147.191406 L 191.605469 142.730469 C 195.132812 144.660156 198.015625 147.105469 201.070312 149.601562 L 189.25 150.535156 C 189.816406 150.730469 190.585938 150.71875 191.1875 150.792969 L 193.1875 151.097656 C 197.050781 151.707031 200.695312 153.378906 203.714844 155.867188 C 196.796875 156.824219 196.910156 156.789062 196.433594 156.960938 C 196.121094 157.078125 195.691406 157.058594 195.355469 157.085938 C 195.742188 156.757812 195.96875 156.757812 200.039062 155.84375 L 201.902344 155.46875 C 197.847656 152.453125 195.546875 152.246094 189.527344 151.070312 L 186.851562 150.769531 C 188.761719 150.105469 191.355469 149.738281 197.710938 148.675781 C 189.820312 142.105469 190.191406 143.171875 188.625 141.722656 C 191.066406 141.902344 194.929688 142.789062 198.71875 143.5625 C 195.136719 139.359375 194.601562 138.667969 193.898438 138.171875 L 194.742188 139.742188 C 191.296875 139.066406 179.644531 140.074219 172.996094 144.523438 C 168.796875 147.332031 165.433594 151.839844 164.46875 156.839844 C 163.492188 161.867188 165.039062 167.277344 167.882812 171.46875 C 172.777344 178.675781 178.296875 180.988281 186.953125 184.601562 C 193.585938 187.371094 200.566406 190.414062 205.730469 195.554688 C 207.554688 197.371094 209.125 199.351562 210.160156 201.730469 C 211.214844 204.160156 211.742188 206.664062 211.246094 209.304688 C 210.175781 214.996094 204.121094 219.832031 198.726562 221.03125 C 199.109375 220.789062 199.566406 220.648438 199.984375 220.460938 C 203.328125 218.984375 207.039062 216.148438 209.089844 212.582031 C 210.414062 210.273438 210.722656 208.652344 210.605469 206.085938 C 210.308594 206.667969 209.984375 208.113281 207.585938 210.167969 C 208.355469 208.976562 209.414062 207.964844 210.054688 205.34375 C 210.265625 204.492188 210.472656 204.378906 209.355469 201.910156 C 206.125 194.753906 197.832031 189.835938 190.582031 186.820312 L 179.246094 182.304688 C 176.660156 181.167969 174.117188 179.886719 171.851562 178.1875 C 167.433594 174.875 164.59375 170.289062 163.390625 164.855469 C 161.097656 154.496094 167.886719 142.53125 183.707031 139.109375 C 188.570312 138.058594 191.660156 138.730469 192.949219 138.917969 C 187.066406 135.976562 180.976562 136.160156 178.949219 130.070312 L 178.652344 128.929688 C 177.707031 131.546875 177.972656 134.308594 179.140625 136.804688 L 179.9375 138.269531 C 176.878906 138.359375 173.832031 138.445312 170.785156 138.078125 C 165.207031 137.402344 163.074219 135.515625 161.363281 132.851562 C 161.210938 135.347656 162.050781 137.660156 163.703125 139.539062 C 165.183594 141.222656 166.992188 142.125 169.070312 142.875 C 168.726562 143.191406 167.941406 143.410156 167.5 143.578125 C 164.226562 144.820312 160.859375 145.429688 157.355469 145.28125 C 152.515625 145.074219 146.59375 143.183594 143.355469 139.660156 C 143.066406 139.34375 142.8125 138.851562 142.5 138.597656 C 142.734375 139.90625 143.429688 141.160156 144.125 142.28125 C 145.972656 145.238281 148.34375 147.8125 151.210938 149.8125 C 154.484375 152.09375 158.066406 153.230469 161.949219 153.960938 C 161.070312 155.488281 159.980469 156.898438 158.921875 158.304688 C 154.046875 164.761719 149.617188 168.683594 139.757812 169.328125 C 142.589844 170.609375 147.167969 171.460938 149.828125 171.585938 C 153.53125 171.753906 157.371094 170.984375 160.496094 169.691406 C 155.507812 179.632812 157.140625 189.628906 164.667969 197.699219 C 165.84375 198.953125 165.742188 198.867188 165.859375 198.953125 C 163.695312 195.578125 161.957031 191.746094 162.859375 187.640625 C 163.34375 185.453125 164.398438 183.675781 165.957031 182.078125 C 166.535156 181.488281 167.117188 180.953125 167.8125 180.503906 C 167.609375 181.4375 167.472656 182.359375 167.453125 183.316406 C 167.375 187.089844 168.808594 191.207031 170.839844 194.351562 C 172.609375 197.097656 174.964844 199.46875 177.453125 201.566406 C 175.550781 198.15625 174.171875 193.9375 175.269531 190.035156 C 175.722656 188.433594 176.769531 186.917969 178.109375 185.933594 L 178.160156 185.933594 C 178.175781 186.917969 178.171875 187.910156 178.269531 188.886719 C 178.636719 192.5625 179.953125 195.972656 182.640625 198.582031 C 184.75 200.625 187.527344 201.890625 190.125 203.191406 C 188.101562 201.519531 185.945312 199.285156 185.671875 196.527344 C 185.386719 193.679688 186.660156 191.417969 188.917969 190 C 189.070312 190.320312 189.105469 190.765625 189.195312 191.121094 C 190.15625 194.792969 191.570312 197.394531 196.074219 200.445312 C 196.789062 200.929688 197.574219 201.492188 198.363281 201.835938 C 196.761719 200.214844 195.078125 197.914062 195.074219 195.527344 C 195.074219 194.519531 195.476562 193.550781 196.066406 192.75 C 198.0625 194.296875 199.8125 195.917969 200.976562 198.203125 C 201.390625 199.011719 201.75 199.9375 201.859375 200.84375 C 202.199219 203.667969 201.371094 205.320312 199.472656 206.867188 C 200.183594 206.558594 200.851562 206.242188 201.492188 205.796875 C 203.664062 204.277344 205.265625 201.566406 205.222656 198.359375 C 207.054688 201.367188 207.59375 204.523438 206.765625 207.957031 C 205.515625 213.125 202.019531 217.378906 198.824219 219.324219 C 194.871094 221.730469 189.902344 221.925781 185.492188 220.832031 C 179.832031 219.429688 175.085938 215.917969 170.660156 212.265625 C 165.929688 208.359375 161.21875 204.015625 151.699219 202.257812 C 147.625 201.507812 143.339844 201.480469 139.300781 202.472656 C 141.941406 202.578125 144.671875 202.78125 147.160156 203.738281 C 147.570312 203.894531 148.167969 204.117188 148.464844 204.453125 C 148.632812 204.640625 148.648438 204.820312 148.644531 205.066406 C 147.90625 206.785156 142.816406 207.167969 135.140625 212.691406 C 135.023438 212.777344 134.25 213.304688 134.246094 213.351562 C 136.710938 212.796875 139.324219 212.492188 141.847656 212.722656 C 137.546875 216.75 135.199219 221.226562 133.171875 224.707031 L 131.371094 228.476562 C 132.710938 227.269531 134.0625 226.09375 135.503906 225.011719 C 138.839844 222.507812 145.285156 218.5 149.382812 218.730469 C 151.988281 218.875 152.921875 220.339844 153.726562 222.589844 C 153.746094 222.648438 153.730469 222.632812 153.769531 222.652344 L 153.9375 220.976562 C 154.273438 219.082031 155.160156 217.394531 156.753906 216.257812 C 157.886719 215.445312 159.582031 214.8125 161 215.058594 C 161.113281 215.082031 160.988281 215.0625 161.730469 215.171875 C 161.132812 214.488281 160.527344 213.808594 159.839844 213.210938 C 158.320312 211.894531 156.484375 211.054688 154.46875 210.917969 C 152.429688 210.777344 150.714844 211.039062 147.914062 212.382812 C 143.203125 214.644531 140.125 217.742188 139.617188 217.878906 C 142.296875 215.183594 145.136719 212.765625 148.621094 211.164062 C 153.632812 208.867188 157.851562 209.460938 162.21875 213.804688 C 165.808594 217.371094 168.269531 221.972656 175.484375 226.671875 C 192.527344 237.773438 213.460938 232.445312 221.957031 223.941406 C 225.628906 220.261719 228.359375 215.269531 229.285156 210.136719 C 229.566406 208.566406 229.652344 206.941406 229.648438 205.34375 C 229.632812 201.828125 228.929688 198.585938 227.722656 195.296875 C 226.171875 191.0625 224.382812 187.757812 220.71875 184.136719 C 218.296875 181.742188 216.871094 181.058594 213.820312 179.503906 C 206.785156 175.910156 203.976562 175.339844 196.257812 173.074219 C 188.90625 170.664062 181.566406 168.875 179.261719 163.800781 C 177.664062 160.289062 179.503906 155.527344 183.941406 153.5625 C 186.144531 152.585938 189.972656 152.0625 192.421875 152.019531 C 193.730469 151.996094 193.574219 151.96875 194.460938 152.65625 C 196.023438 153.863281 196.960938 154.660156 197.558594 156.113281 C 193.308594 157.285156 194.925781 156.804688 190.503906 158.203125 C 190.289062 158.269531 189.546875 158.425781 189.421875 158.554688 C 194.460938 158.683594 197.265625 158.765625 201.425781 160.554688 C 200.871094 161.070312 198.789062 162.613281 197.046875 163.582031 C 198.246094 163.402344 199.453125 163.371094 200.664062 163.375 C 205.011719 163.386719 209.082031 164.324219 213.046875 166.082031 C 215.066406 166.976562 219.792969 169.355469 220.085938 171.542969 C 220.179688 172.234375 219.820312 172.820312 219.402344 173.335938 C 218.09375 174.949219 215.796875 175.957031 213.8125 176.421875 C 213.972656 176.496094 214.425781 176.449219 214.621094 176.449219 C 216.558594 176.433594 218.394531 176.132812 220.21875 175.476562 C 223.925781 174.136719 226.085938 172.1875 227.523438 171.015625 L 223.632812 172.433594 C 223.597656 172.289062 223.453125 171.914062 223.476562 171.78125 C 223.5 171.628906 223.414062 171.792969 225.945312 167.75 L 222.710938 170.105469 L 221.957031 169.046875 L 223.445312 165.984375 L 220.828125 167.878906 L 219.539062 166.699219 L 219.8125 164.242188 L 218.796875 165.03125 C 218.4375 164.550781 218.238281 163.976562 217.902344 163.488281 C 216.964844 162.125 215.496094 161.03125 214.066406 160.242188 C 213.757812 160.070312 213.445312 159.867188 213.117188 159.738281 C 216.484375 163.023438 217.753906 164.070312 218.285156 165.558594 C 215.949219 164.085938 211.035156 158.800781 209.21875 157.199219 C 209.890625 157.042969 210.574219 156.851562 211.257812 156.738281 C 221.078125 155.140625 228.671875 159.425781 229.390625 162.386719 C 229.789062 164.035156 228.925781 166.128906 228.042969 167.488281 L 227.519531 168.183594 C 228.167969 167.761719 228.765625 167.105469 229.296875 166.539062 C 231.277344 164.421875 232.925781 162 233.53125 159.109375 C 233.816406 157.765625 233.804688 155.585938 233.695312 154.972656 Z M 181.214844 227.769531 C 179.992188 226.816406 179.222656 225.652344 179.035156 224.089844 C 179 223.789062 178.894531 223.25 179.089844 223 C 179.183594 223.058594 179.160156 223.015625 179.164062 223.117188 C 179.195312 224.539062 180.015625 226.039062 180.898438 227.117188 C 181.222656 227.515625 181.59375 227.824219 181.902344 228.25 Z M 186.292969 149.847656 C 186.261719 149.742188 186.304688 149.570312 186.316406 149.460938 C 186.507812 147.710938 187.441406 146.101562 189.140625 144.992188 C 189.472656 144.777344 189.824219 144.625 190.164062 144.425781 C 189.222656 144.394531 188.234375 144.371094 187.320312 144.507812 C 185.558594 144.769531 183.84375 145.601562 182.558594 146.832031 C 181.367188 147.972656 180.917969 149.15625 180.886719 150.773438 L 183.429688 151.082031 C 182.523438 151.164062 181.550781 151.117188 180.644531 151.046875 C 180.511719 148.410156 181.570312 146.390625 184.214844 144.882812 C 183.542969 144.84375 181.480469 145.207031 180.300781 145.730469 C 178.972656 146.324219 177.496094 147.570312 176.691406 148.78125 C 175.632812 150.378906 175.554688 152.347656 175.933594 154.179688 C 177.203125 153.691406 178.804688 153.035156 180.191406 153.203125 C 178.675781 153.507812 177.296875 153.9375 175.886719 154.578125 C 175.0625 153.140625 175.1875 149.898438 176.347656 148.179688 C 176.53125 147.90625 176.808594 147.625 176.945312 147.332031 C 175.695312 147.925781 174.476562 148.941406 173.585938 149.984375 C 171.457031 152.476562 171.03125 156.027344 173.519531 158.109375 C 173.054688 157.984375 172.550781 157.472656 172.25 157.109375 C 171.328125 155.976562 171.207031 154.304688 171.328125 152.914062 L 170.496094 154.683594 C 169.871094 156.222656 169.597656 158.25 170.269531 159.8125 C 171 161.511719 172.59375 162.5625 174.253906 163.207031 C 174.574219 161.121094 175.507812 158.855469 177.125 157.445312 C 176.523438 158.328125 175.117188 159.800781 174.625 163.640625 L 173.113281 163.066406 C 171.160156 162.144531 169.921875 160.609375 169.210938 158.605469 L 169.203125 159.890625 C 169.28125 161.855469 169.796875 164.285156 171.308594 165.660156 C 173.363281 167.535156 176.378906 168.417969 179.121094 168.304688 C 178.246094 165.582031 177.859375 164.523438 177.769531 163.667969 C 177.859375 163.785156 177.617188 163.257812 179.695312 168.632812 C 176.597656 168.917969 173.289062 168.105469 170.773438 166.265625 C 171.371094 167.652344 172.117188 168.8125 173.097656 169.96875 C 173.878906 170.894531 173.703125 170.726562 174.992188 171.105469 C 177.675781 171.894531 180.859375 172.023438 183.582031 171.371094 L 181.976562 168.488281 C 182.242188 168.691406 182.382812 168.925781 184.222656 171.570312 C 182.203125 172.234375 178.15625 172.527344 174.894531 171.886719 C 176.484375 173.464844 179.136719 175.375 179.730469 175.53125 C 180.398438 175.710938 184.78125 176.042969 188.101562 174.222656 L 186.136719 170.726562 C 187.160156 171.730469 188.007812 173.078125 188.613281 174.367188 C 186.25 175.644531 183.59375 176.246094 180.925781 176.347656 C 185.375 178.585938 184.726562 178.265625 185.046875 178.414062 C 185.320312 178.5 185.664062 178.476562 185.945312 178.476562 C 187.835938 178.476562 189.625 177.761719 191.300781 176.957031 C 192.140625 176.550781 192.976562 176.140625 193.777344 175.667969 C 193.257812 174.917969 191.648438 173.453125 190.753906 172.804688 L 190.847656 172.796875 C 192.140625 173.5 193.613281 174.558594 194.429688 175.800781 C 188.148438 179.140625 187.59375 178.859375 186.855469 179.152344 L 191.167969 180.773438 C 191.679688 180.941406 191.636719 181.003906 192.90625 180.671875 C 195.371094 180.023438 197.710938 178.800781 199.976562 177.652344 C 199.925781 177.476562 199.671875 177.238281 199.550781 177.097656 C 198.777344 176.214844 197.902344 175.375 196.945312 174.695312 C 197.640625 174.90625 199.675781 176.382812 200.566406 177.734375 L 192.851562 181.394531 L 198.535156 183.222656 C 199.90625 183.632812 205.382812 180.929688 206.898438 180.136719 C 205.824219 178.617188 204.59375 177.324219 203.113281 176.207031 C 204.09375 176.558594 206.035156 178.175781 207.523438 180.171875 L 200.164062 183.78125 C 204.816406 185.695312 204.210938 185.523438 204.371094 185.550781 C 204.578125 185.589844 205.148438 185.375 205.386719 185.316406 C 207.996094 184.6875 210.558594 184.003906 213.0625 183.035156 C 212.46875 181.835938 211.660156 180.761719 210.765625 179.773438 C 210.496094 179.476562 210.046875 179.160156 209.84375 178.832031 C 210.164062 179.003906 210.4375 179.269531 210.714844 179.507812 C 211.929688 180.550781 212.871094 181.792969 213.695312 183.160156 C 208.703125 184.9375 206.96875 185.636719 205.199219 185.949219 L 206.898438 186.953125 C 207.5 187.320312 207.945312 187.738281 208.628906 187.863281 C 210.148438 188.160156 210.929688 187.9375 218.488281 187.253906 C 218.027344 185.480469 217.453125 183.867188 216.253906 182.449219 L 216.273438 182.378906 C 217.703125 183.808594 218.660156 185.691406 219.132812 187.648438 L 209.488281 188.734375 C 211.066406 189.773438 212.226562 191.0625 212.386719 191.144531 C 212.464844 191.1875 212.339844 191.132812 214.035156 191.472656 C 218.371094 192.503906 218.71875 192.476562 222.355469 194.160156 C 222.449219 193.734375 222.414062 193.238281 222.414062 192.800781 C 222.410156 191.058594 222.230469 189.421875 221.984375 187.699219 C 222.699219 189.714844 222.925781 193.128906 222.757812 194.933594 C 219.367188 193.023438 215.621094 192.421875 213.167969 191.945312 C 214.777344 193.941406 214.652344 193.8125 215.625 195.355469 C 215.75 195.570312 216.015625 196.191406 216.199219 196.3125 C 216.660156 196.625 220.648438 197.476562 225.296875 201.371094 C 226.019531 199.78125 226.632812 198.003906 226.53125 196.234375 C 226.507812 195.835938 226.417969 195.457031 226.335938 195.070312 L 226.535156 195.519531 C 227.238281 197.492188 226.339844 200.300781 225.460938 202.109375 C 224.214844 200.972656 222.621094 200.023438 221.136719 199.234375 L 216.480469 197.136719 C 216.859375 198.152344 217.28125 199.148438 217.546875 200.203125 C 218.046875 202.339844 217.964844 202.109375 218.011719 202.1875 C 218.015625 202.195312 220.449219 203.484375 220.726562 203.660156 C 223.191406 205.199219 225.492188 207.777344 225.914062 208.617188 C 225.179688 208.097656 224.535156 207.328125 223.851562 206.730469 C 222.085938 205.179688 220.179688 203.824219 218.0625 202.792969 C 218.089844 203.539062 218.179688 204.277344 218.171875 205.027344 C 218.128906 206.96875 218.019531 206.320312 218.457031 207.03125 C 219.621094 209.105469 220.507812 210.90625 220.9375 213.558594 C 224.105469 211.949219 226.929688 209.058594 228.25 205.738281 L 228.054688 206.578125 C 226.914062 210.105469 223.777344 212.683594 220.578125 214.304688 C 220.355469 212.175781 219.699219 210.425781 218.644531 208.574219 C 218.449219 208.226562 218.230469 207.742188 217.949219 207.476562 C 217.75 208.441406 217.527344 209.363281 217.183594 210.292969 C 217.082031 210.5625 216.355469 212.214844 216.355469 212.355469 C 216.363281 212.59375 216.527344 212.75 216.660156 213.945312 C 216.910156 216.203125 216.878906 218.449219 216.117188 220.605469 C 216.457031 220.625 216.242188 220.632812 221.226562 219.261719 C 221.914062 219.054688 222.601562 218.757812 223.304688 218.605469 C 220.972656 219.964844 218.28125 220.824219 215.605469 221.15625 C 215.636719 220.90625 217.039062 217.902344 215.730469 213.308594 C 215.390625 214.0625 214.167969 215.996094 212.402344 217.980469 C 211.273438 219.246094 211.121094 219.105469 210.261719 220.882812 C 209.574219 222.300781 209.15625 223.753906 208.882812 225.300781 C 212.210938 225.84375 215.589844 225.089844 216.707031 225.019531 C 216.242188 225.203125 215.726562 225.320312 215.242188 225.449219 C 213.132812 226.011719 210.632812 226.332031 208.519531 225.644531 C 208.480469 223.992188 208.984375 222.351562 209.53125 220.8125 C 206.878906 222.992188 205.421875 223.535156 204.5625 224.117188 C 203.078125 225.121094 201.8125 226.3125 200.703125 227.714844 C 200.832031 227.859375 201.144531 227.964844 201.320312 228.042969 C 203.339844 228.960938 205.71875 229.117188 207.898438 229.320312 L 207.933594 229.375 C 205.960938 229.507812 203.902344 229.582031 202.011719 228.910156 C 201.347656 228.671875 200.734375 228.324219 200.136719 227.945312 C 200.152344 227.757812 200.308594 227.507812 200.398438 227.339844 C 200.914062 226.367188 201.667969 225.585938 202.429688 224.808594 C 199.09375 226.507812 194.707031 226.421875 194.605469 226.476562 C 194.488281 226.542969 194.734375 226.347656 192.761719 228.207031 C 195.539062 230.53125 198.109375 231 198.945312 231.242188 L 198.367188 231.242188 C 195.984375 231.199219 193.902344 229.878906 192.296875 228.222656 C 192.671875 227.59375 193.246094 227.019531 193.714844 226.453125 C 191.175781 226.589844 187.304688 225.582031 185.613281 225.15625 L 185.652344 225.945312 C 185.886719 227.789062 187.816406 229.234375 189.175781 230.308594 C 188.027344 229.984375 186.730469 229.0625 186.015625 228.109375 C 185.324219 227.1875 185.304688 226.257812 185.460938 225.167969 C 185.339844 225.074219 185.390625 225.117188 183.867188 224.65625 C 164.523438 218.75 165.015625 202.921875 146.0625 208.6875 C 144.847656 209.054688 143.691406 209.613281 142.488281 209.976562 C 143.726562 209.210938 148.492188 207.289062 151.773438 207.03125 C 165.507812 205.953125 168.347656 220.234375 187.007812 224.726562 C 189.816406 225.402344 192.691406 225.742188 195.578125 225.5 C 200.398438 225.09375 205.308594 223.144531 209.089844 220.128906 C 212.242188 217.609375 215.535156 213.246094 216.636719 209.097656 C 217.730469 204.976562 217.199219 200.078125 214.546875 195.632812 C 211.507812 190.542969 206.363281 187.417969 201.019531 185.195312 C 194.769531 182.847656 195.859375 183.261719 187.691406 180.445312 C 183.550781 178.835938 178.308594 176.222656 174.933594 173.375 C 168.167969 167.675781 165.988281 157.304688 172.203125 150.050781 C 174.9375 146.855469 179.023438 144.847656 183.109375 144.039062 C 184.234375 143.816406 185.394531 143.710938 186.539062 143.625 C 187.023438 143.546875 188.328125 143.589844 188.816406 143.597656 C 190.816406 143.613281 191.101562 143.523438 192.09375 144.332031 L 189.355469 145.605469 C 187.625 146.625 186.785156 147.929688 186.292969 149.847656 Z M 198.339844 163.023438 C 200.78125 161.75 203.457031 160.6875 206.15625 160.105469 C 205.332031 159.429688 204.289062 159.0625 203.289062 158.710938 C 201.007812 157.90625 198.75 157.410156 196.371094 157.003906 C 197.3125 156.945312 198.222656 157.082031 199.148438 157.222656 C 201.679688 157.609375 204.375 158.269531 206.636719 159.507812 C 207.304688 159.875 207.910156 160.351562 208.488281 160.847656 C 202.957031 160.785156 198.703125 163.144531 198.339844 163.023438 Z M 215.476562 152.554688 C 214.003906 151.703125 213.128906 150.03125 212.714844 148.441406 C 212.996094 148.710938 213.265625 148.960938 213.601562 149.160156 C 213.785156 149.269531 213.925781 150.105469 214.007812 150.347656 C 214.347656 151.308594 214.96875 151.976562 215.6875 152.671875 Z M 218.21875 153.050781 C 216.515625 152.417969 215.246094 151.21875 214.488281 149.570312 L 216.878906 150.277344 C 218.695312 150.894531 220.175781 152.105469 221.027344 153.839844 Z M 231.339844 161.417969 C 231.363281 161.011719 231.429688 160.621094 231.386719 160.214844 C 231.300781 159.394531 230.777344 158.988281 230.179688 158.503906 C 230.742188 158.5625 231.269531 158.535156 231.832031 158.492188 C 231.824219 159.449219 231.675781 160.519531 231.339844 161.417969 Z M 231.339844 161.417969 " fill-opacity="1" fill-rule="nonzero"/></g></svg>